<svg width="18" height="18" viewBox="0 0 18 18" fill="none" xmlns="http://www.w3.org/2000/svg">
<g clip-path="url(#clip0_15_399)">
<path d="M0.88575 9C1.59075 5.16 4.956 2.25 9 2.25C13.044 2.25 16.4085 5.16 17.1143 9C16.4093 12.84 13.044 15.75 9 15.75C4.956 15.75 1.5915 12.84 0.88575 9ZM9 12.75C9.99456 12.75 10.9484 12.3549 11.6517 11.6517C12.3549 10.9484 12.75 9.99456 12.75 9C12.75 8.00544 12.3549 7.05161 11.6517 6.34835C10.9484 5.64509 9.99456 5.25 9 5.25C8.00544 5.25 7.05161 5.64509 6.34835 6.34835C5.64509 7.05161 5.25 8.00544 5.25 9C5.25 9.99456 5.64509 10.9484 6.34835 11.6517C7.05161 12.3549 8.00544 12.75 9 12.75ZM9 11.25C8.40326 11.25 7.83097 11.0129 7.40901 10.591C6.98705 10.169 6.75 9.59674 6.75 9C6.75 8.40326 6.98705 7.83097 7.40901 7.40901C7.83097 6.98705 8.40326 6.75 9 6.75C9.59674 6.75 10.169 6.98705 10.591 7.40901C11.0129 7.83097 11.25 8.40326 11.25 9C11.25 9.59674 11.0129 10.169 10.591 10.591C10.169 11.0129 9.59674 11.25 9 11.25Z" fill="white"/>
</g>
<defs>
<clipPath id="clip0_15_399">
<rect width="18" height="18" fill="white"/>
</clipPath>
</defs>
</svg>
