<svg width="14" height="14" viewBox="0 0 14 14" fill="none" xmlns="http://www.w3.org/2000/svg">
<path d="M6.33334 0.333328C9.64534 0.333328 12.3333 3.02133 12.3333 6.33333C12.3333 9.64533 9.64534 12.3333 6.33334 12.3333C3.02134 12.3333 0.333344 9.64533 0.333344 6.33333C0.333344 3.02133 3.02134 0.333328 6.33334 0.333328ZM6.33334 11C8.91134 11 11 8.91133 11 6.33333C11 3.75466 8.91134 1.66666 6.33334 1.66666C3.75468 1.66666 1.66668 3.75466 1.66668 6.33333C1.66668 8.91133 3.75468 11 6.33334 11ZM11.99 11.0473L13.876 12.9327L12.9327 13.876L11.0473 11.99L11.99 11.0473Z" fill="black"/>
</svg>
